<?xml version="1.0" standalone="no"?><!DOCTYPE svg PUBLIC "-//W3C//DTD SVG 1.1//EN" "http://www.w3.org/Graphics/SVG/1.1/DTD/svg11.dtd"><svg t="1524184834760" class="icon" style="" viewBox="0 0 1024 1024" version="1.1" xmlns="http://www.w3.org/2000/svg" p-id="4604" xmlns:xlink="http://www.w3.org/1999/xlink" width="64" height="64"><defs><style type="text/css"></style></defs><path d="M938.666667 128H640c-23.466667 0-42.666667-19.2-42.666667-42.666667s19.2-42.666667 42.666667-42.666666h298.666667c23.466667 0 42.666667 19.2 42.666666 42.666666s-19.2 42.666667-42.666666 42.666667M384 128H85.333333c-23.466667 0-42.666667-19.2-42.666666-42.666667s19.2-42.666667 42.666666-42.666666h298.666667c23.466667 0 42.666667 19.2 42.666667 42.666666s-19.2 42.666667-42.666667 42.666667" fill="#ffffff" p-id="4605"></path><path d="M896 384V85.333333c0-23.466667 19.2-42.666667 42.666667-42.666666s42.666667 19.2 42.666666 42.666666v298.666667c0 23.466667-19.2 42.666667-42.666666 42.666667s-42.666667-19.2-42.666667-42.666667M42.666667 384V85.333333c0-23.466667 19.2-42.666667 42.666666-42.666666s42.666667 19.2 42.666667 42.666666v298.666667c0 23.466667-19.2 42.666667-42.666667 42.666667s-42.666667-19.2-42.666666-42.666667M85.333333 896h298.666667c23.466667 0 42.666667 19.2 42.666667 42.666667s-19.2 42.666667-42.666667 42.666666H85.333333c-23.466667 0-42.666667-19.2-42.666666-42.666666s19.2-42.666667 42.666666-42.666667M640 896h298.666667c23.466667 0 42.666667 19.2 42.666666 42.666667s-19.2 42.666667-42.666666 42.666666H640c-23.466667 0-42.666667-19.2-42.666667-42.666666s19.2-42.666667 42.666667-42.666667" fill="#ffffff" p-id="4606"></path><path d="M128 938.666667c0 23.466667-19.2 42.666667-42.666667 42.666666s-42.666667-19.2-42.666666-42.666666V640c0-23.466667 19.2-42.666667 42.666666-42.666667s42.666667 19.2 42.666667 42.666667v298.666667zM981.333333 938.666667c0 23.466667-19.2 42.666667-42.666666 42.666666s-42.666667-19.2-42.666667-42.666666V640c0-23.466667 19.2-42.666667 42.666667-42.666667s42.666667 19.2 42.666666 42.666667v298.666667zM908.535467 55.125333c16.597333-16.597333 43.776-16.597333 60.373333 0 16.554667 16.597333 16.554667 43.733333 0 60.330667L682.658133 401.664a42.7776 42.7776 0 0 1-60.330666 0 42.7776 42.7776 0 0 1 0-60.330667l286.208-286.208z" fill="#ffffff" p-id="4607"></path><path d="M341.316267 622.336c16.605867-16.597333 43.776-16.597333 60.381866 0 16.554667 16.597333 16.554667 43.733333 0 60.330667l-286.250666 286.208a42.7776 42.7776 0 0 1-60.330667 0 42.7776 42.7776 0 0 1 0-60.330667l286.208-286.208z" fill="#ffffff" p-id="4608"></path></svg>