<?xml version="1.0" standalone="no"?><!DOCTYPE svg PUBLIC "-//W3C//DTD SVG 1.1//EN" "http://www.w3.org/Graphics/SVG/1.1/DTD/svg11.dtd"><svg t="1510638170337" class="icon" style="" viewBox="0 0 1024 1024" version="1.1" xmlns="http://www.w3.org/2000/svg" p-id="2172" xmlns:xlink="http://www.w3.org/1999/xlink" width="64" height="64"><defs><style type="text/css"></style></defs><path d="M328.568707 703.017816h-123.551949s6.502734-7.947786 6.502734-54.731346c0-52.383136-29.442935-57.079555-29.442935-125.538895 0-53.828188 20.230729-77.129652 20.230728-124.455107 0-41.183983-16.618098-81.64544-16.618098-81.64544h142.87952s-22.037044 156.788146-22.037044 203.210442c0 46.602928 22.037044 183.160346 22.037044 183.160346z m566.821662 0l-99.527959 3.070736s-21.495149 1.806315-21.495149-44.796613c0-52.383136 28.901041-70.085024 28.90104-138.363733 0-53.828188-30.165461-83.271124-30.165461-130.596578 0-41.183983 10.476627-75.503969 10.476627-75.503969h111.810902s22.398307 156.788146 22.398306 203.210443c0 46.422297-22.398307 182.979714-22.398306 182.979714z m0 0" fill="#EACE62" p-id="2173"></path><path d="M949.218557 35.042512h-874.256483c-34.86188 0-63.221027 28.359146-63.221026 63.221027v601.50291c0 34.86188 28.359146 63.221027 63.221026 63.221027h47.506086c2.890104 8.850944 8.128418 17.701887 16.076204 25.830305 1.986947 1.986947 4.335156 3.431999 7.044629 4.154525 79.297231 20.591992 98.986065 46.061034 103.682483 59.427765 5.238314 14.811783-3.431999 26.733463-3.973893 27.455988-5.238314 6.683366-3.973893 15.895572 2.528841 21.133886 6.683366 5.238314 16.076204 4.154525 21.314518-2.528841 7.044629-9.031575 17.159993-30.887987 9.031575-55.453872-11.379785-33.236197-51.841242-59.608397-120.481213-78.03281-5.599577-6.683366-7.405892-12.463574-7.405892-16.979361v-0.180632c0-5.96084 3.793262-12.102311 10.657259-17.521256 0.180632-0.180632 0.541895-0.180632 0.541894-0.541894 1.986947-1.445052 4.154525-2.890104 6.683366-4.154525 0.541895-0.361263 1.083789-0.541895 1.806315-0.903157 2.890104-1.445052 6.322103-2.528841 9.57347-3.793262 5.238314-1.264421 14.811783-2.890104 29.984829-2.890104 26.552831 0 57.440818 5.238314 91.941436 15.353678 5.780208 2.528841 11.560416 5.238314 17.340625 8.309049 1.806315 0.903158 3.61263 1.986947 5.238313 2.890104 7.405892 3.973893 14.631152 8.670312 22.037044 13.547363 0.541895 0.541895 1.264421 0.722526 1.806315 1.264421 115.965426 81.464809 102.959958 122.648792 103.140589 122.648791-3.973893 7.405892-1.083789 16.618098 6.322103 20.591992 2.167578 1.264421 4.696419 1.806315 7.044629 1.806315 5.418945 0 10.657259-2.890104 13.366731-8.128418 4.877051-9.031575 20.591992-54.370083-75.503969-133.30605h268.418416c-96.276592 79.116599-80.38102 124.455107-75.684601 133.486682 2.890104 5.238314 8.309049 8.309049 13.908626 8.309049 2.34821 0 4.696419-0.541895 6.683366-1.806315 7.405892-3.973893 10.476627-12.644205 6.502734-20.050097-0.180632-0.361263-13.727994-41.545246 102.779326-123.371318 8.128418-5.599577 16.256835-10.476627 24.385253-15.173046 1.445052-0.903158 2.890104-1.625684 4.335157-2.528841 5.96084-3.251367 12.102311-5.96084 18.06315-8.670313 34.319986-10.115364 65.207973-15.353678 91.760804-15.353677 15.173046 0 24.746516 1.806315 29.804199 2.890104 3.251367 1.264421 6.683366 2.34821 9.754101 3.793261 0.541895 0.180632 1.083789 0.541895 1.625683 0.722526 2.528841 1.264421 4.877051 2.890104 7.044629 4.335156l0.180632 0.180632c7.044629 5.238314 10.83789 11.379785 10.83789 17.521256v0.180631c0 4.515788-1.806315 10.115364-7.405892 16.79873-68.820603 18.424413-109.28206 44.796613-120.481213 78.394073-8.309049 24.565885 1.806315 46.422297 9.031575 55.453872 5.238314 6.683366 14.811783 7.767155 21.314517 2.528841 6.683366-5.238314 7.767155-14.811783 2.528841-21.314517-0.180632-0.180632-9.031575-12.102311-3.973893-27.094726 4.515788-13.547363 24.02399-39.197037 103.682484-59.789028 2.709473-0.722526 5.238314-2.167578 7.044629-4.154525 7.947786-8.309049 13.1861-17.159993 16.076204-26.010936 34.319986-0.722526 61.956606-28.720409 61.956606-63.040395v-601.502911c0-34.139354-28.359146-62.679132-63.221027-62.679132zM172.683718 326.039866h134.931734c5.599577 20.050097 15.534309 70.988181-7.405891 135.292997l-1.625684 4.515788c-11.018522 30.887987-24.746516 69.181866 5.780208 148.298465 18.605045 48.228612 7.22526 75.6846-0.541894 87.60628h-0.180632c-1.264421-0.541895-2.709473-0.903158-3.973893-1.625684-18.06315-6.863997-35.584406-11.199153-52.021873-13.366731l-4.335156-0.541895c-7.767155-0.903158-15.173046-1.445052-22.578938-1.445052-1.625684 0-3.251367 0.180632-4.877051 0.180632-5.96084 0.180632-11.921679 0.541895-17.521256 1.26442-1.445052 0.180632-2.890104 0.180632-4.335156 0.541895-1.264421 0.180632-2.34821 0.541895-3.431999 0.541894 5.238314-25.107779 8.850944-62.317869-7.586523-87.064385-17.701887-26.733463-21.856412-109.101429-0.361263-171.238666 9.212207-26.914094-1.986947-75.323337-9.934733-102.959958z m596.083966 287.926618c30.526724-79.116599 16.79873-117.59111 5.599577-148.298465l-1.625684-4.335156c-22.75957-64.304816-13.005468-115.2429-7.405892-135.292997h134.931734c-7.947786 27.63662-18.966308 76.045863-9.754101 102.959958 21.495149 62.317869 17.340624 144.685835-0.180631 171.238666-16.618098 24.927148-13.005468 61.956606-7.767155 87.064385-1.264421-0.180632-2.34821-0.541895-3.431999-0.541894-0.903158-0.180632-1.986947-0.180632-3.070735-0.361263-6.322103-0.903158-12.824837-1.264421-19.688834-1.445052-0.903158 0-1.806315-0.180632-2.709473-0.180632-25.288411-0.180632-54.00882 4.877051-84.174281 16.979362-7.947786-11.741048-19.508203-39.377668-0.722526-87.786912z m213.325807 85.980597c0 17.701887-14.089257 32.152408-31.610513 32.874933-2.167578-5.780208-5.238314-11.379785-9.754102-16.618098-0.541895-0.722526-1.264421-1.264421-2.167578-2.167578l-0.722526-0.722526c-2.167578-2.34821-4.877051-4.515788-7.405891-6.683366-0.903158-0.541895-1.806315-1.264421-2.709473-1.986946-2.167578-1.445052-4.515788-2.890104-7.044629-4.335156-0.903158-0.541895-1.986947-1.264421-2.890104-1.806315-0.361263-0.180632-0.722526-0.180632-1.083789-0.541895 0 0-0.180632 0-0.180631-0.180631-5.780208-19.327571-14.45052-61.23408-1.083789-81.103546 25.107779-38.113247 27.094726-130.596578 3.61263-197.972129-6.322103-18.243782 3.431999-62.859764 12.824837-93.025225h5.960839c8.309049 0 15.173046-6.683366 15.173047-15.173046 0-8.309049-6.683366-15.173046-15.173047-15.173047H741.311695c-8.309049 0-15.173046 6.683366-15.173046 15.173047 0 5.96084 3.431999 10.83789 8.309049 13.366731-6.863997 27.094726-14.089257 80.38102 9.57347 147.214676l1.625683 4.515788c9.754101 27.455989 21.133886 58.524608-5.418945 126.983948-21.495149 55.634503-10.115364 91.941436 1.264421 111.269006-10.115364 5.418945-20.230729 11.379785-30.526725 18.424414H362.166167c-0.903158-0.541895-1.986947-1.083789-2.890104-1.806315-8.309049-5.599577-16.618098-10.476627-24.746516-15.173046-0.903158-0.541895-1.986947-1.264421-3.070736-1.806316 11.379785-19.327571 22.75957-55.634503 1.264421-111.088375-26.552831-68.45934-15.353678-99.527959-5.599577-126.803316l1.806315-4.696419c23.662727-67.014288 16.437467-120.300582 9.57347-147.214677 4.877051-2.528841 8.309049-7.405892 8.309049-13.366731 0-8.309049-6.683366-15.173046-15.173046-15.173046H135.112365c-8.309049 0-15.173046 6.683366-15.173046 15.173046 0 8.309049 6.683366 15.173046 15.173046 15.173046h5.96084c9.212207 30.165461 18.966308 74.781443 12.824837 93.025225-22.75957 66.111131-21.133886 160.581408 3.61263 197.972129 13.1861 19.688834 4.696419 61.595343-1.083789 81.103546-0.361263 0.180632-0.903158 0.361263-1.26442 0.541895-1.264421 0.541895-2.167578 1.264421-3.251368 2.167578-2.34821 1.264421-4.335156 2.528841-6.502734 3.973893l-2.890104 2.167578c-2.528841 2.167578-5.057682 4.154525-7.22526 6.322102l-0.903158 0.903158-1.986946 1.986947c-1.806315 2.167578-3.251367 4.335156-4.877051 6.683365 0 0.180632-0.180632 0.180632-0.180631 0.180632-1.986947 3.251367-3.61263 6.502734-4.877051 9.934732H74.781443c-18.243782 0-32.874934-14.811783-32.874934-32.874933V98.44417c0-18.243782 14.811783-32.874934 32.874934-32.874934h874.256483c18.243782 0 32.874934 14.811783 32.874933 32.874934l0.180632 601.502911z m-502.155583-444.534133c0-8.309049-6.683366-15.173046-15.173046-15.173047-51.479979 0-95.012171-31.791145-115.965426-46.964191-4.877051-3.61263-8.670312-6.322103-11.199154-7.767155-7.22526-4.335156-16.437467-1.986947-20.772623 5.238314-4.335156 7.22526-1.986947 16.437467 5.238314 20.772623 2.167578 1.264421 5.057682 3.431999 8.850944 6.322103 23.662727 17.159993 72.433233 52.925031 133.667313 52.925031 8.670312-0.180632 15.353678-7.044629 15.353678-15.353678z m217.480332-69.904393c-2.528841 1.625684-6.322103 4.335156-11.379785 7.767155-20.953255 15.173046-64.485447 46.964191-115.965426 46.964191-8.309049 0-15.173046 6.683366-15.173047 15.173047 0 8.309049 6.683366 15.173046 15.173047 15.173046 61.23408 0 110.365849-35.765038 133.847945-52.744399 3.793262-2.890104 6.863997-5.057682 8.850943-6.322103 7.22526-4.335156 9.57347-13.547363 5.238314-20.772623-4.154525-7.22526-13.547363-9.754101-20.591991-5.238314z m-77.129653 412.020462l-102.0568-45.880402c-4.154525-1.806315-9.031575-1.625684-13.005468 0.180632l-90.315753 45.880402c-7.405892 3.793262-10.476627 12.824837-6.683365 20.41136 3.793262 7.405892 12.824837 10.295996 20.41136 6.683366l83.813018-42.448404 95.373434 42.809667c1.986947 0.903158 4.154525 1.264421 6.322103 1.26442 5.780208 0 11.379785-3.251367 13.908626-9.031575 3.251367-7.586523-0.180632-16.437467-7.767155-19.869466z m0 0" fill="#78C6FF" p-id="2174"></path><path d="M949.218557 35.042512h-874.256483c-34.86188 0-63.221027 28.359146-63.221026 63.221027v601.50291c0 34.86188 28.359146 63.221027 63.221026 63.221027h47.506086c2.890104 8.850944 8.128418 17.701887 16.076204 25.830305 1.986947 1.986947 4.335156 3.431999 7.044629 4.154525 79.297231 20.591992 98.986065 46.061034 103.682483 59.427765 5.238314 14.811783-3.431999 26.733463-3.973893 27.455988-5.238314 6.683366-3.973893 15.895572 2.528841 21.133886 6.683366 5.238314 16.076204 4.154525 21.314518-2.528841 7.044629-9.031575 17.159993-30.887987 9.031575-55.453872-11.379785-33.236197-51.841242-59.608397-120.481213-78.03281-5.599577-6.683366-7.405892-12.463574-7.405892-16.979361v-0.180632c0-5.96084 3.793262-12.102311 10.657259-17.521256 0.180632-0.180632 0.541895-0.180632 0.541894-0.541894 1.986947-1.445052 4.154525-2.890104 6.683366-4.154525 0.541895-0.361263 1.083789-0.541895 1.806315-0.903157 2.890104-1.445052 6.322103-2.528841 9.57347-3.793262 5.238314-1.264421 14.811783-2.890104 29.984829-2.890104 26.552831 0 57.440818 5.238314 91.941436 15.353678 5.780208 2.528841 11.560416 5.238314 17.340625 8.309049 1.806315 0.903158 3.61263 1.986947 5.238313 2.890104 7.405892 3.973893 14.631152 8.670312 22.037044 13.547363 0.541895 0.541895 1.264421 0.722526 1.806315 1.264421 115.965426 81.464809 102.959958 122.648792 103.140589 122.648791-3.973893 7.405892-1.083789 16.618098 6.322103 20.591992 2.167578 1.264421 4.696419 1.806315 7.044629 1.806315 5.418945 0 10.657259-2.890104 13.366731-8.128418 4.877051-9.031575 20.591992-54.370083-75.503969-133.30605h268.418416c-96.276592 79.116599-80.38102 124.455107-75.684601 133.486682 2.890104 5.238314 8.309049 8.309049 13.908626 8.309049 2.34821 0 4.696419-0.541895 6.683366-1.806315 7.405892-3.973893 10.476627-12.644205 6.502734-20.050097-0.180632-0.361263-13.727994-41.545246 102.779326-123.371318 8.128418-5.599577 16.256835-10.476627 24.385253-15.173046 1.445052-0.903158 2.890104-1.625684 4.335157-2.528841 5.96084-3.251367 12.102311-5.96084 18.06315-8.670313 34.319986-10.115364 65.207973-15.353678 91.760804-15.353677 15.173046 0 24.746516 1.806315 29.804199 2.890104 3.251367 1.264421 6.683366 2.34821 9.754101 3.793261 0.541895 0.180632 1.083789 0.541895 1.625683 0.722526 2.528841 1.264421 4.877051 2.890104 7.044629 4.335156l0.180632 0.180632c7.044629 5.238314 10.83789 11.379785 10.83789 17.521256v0.180631c0 4.515788-1.806315 10.115364-7.405892 16.79873-68.820603 18.424413-109.28206 44.796613-120.481213 78.394073-8.309049 24.565885 1.806315 46.422297 9.031575 55.453872 5.238314 6.683366 14.811783 7.767155 21.314517 2.528841 6.683366-5.238314 7.767155-14.811783 2.528841-21.314517-0.180632-0.180632-9.031575-12.102311-3.973893-27.094726 4.515788-13.547363 24.02399-39.197037 103.682484-59.789028 2.709473-0.722526 5.238314-2.167578 7.044629-4.154525 7.947786-8.309049 13.1861-17.159993 16.076204-26.010936 34.319986-0.722526 61.956606-28.720409 61.956606-63.040395v-601.502911c0-34.139354-28.359146-62.679132-63.221027-62.679132zM172.683718 326.039866h134.931734c5.599577 20.050097 15.534309 70.988181-7.405891 135.292997l-1.625684 4.515788c-11.018522 30.887987-24.746516 69.181866 5.780208 148.298465 18.605045 48.228612 7.22526 75.6846-0.541894 87.60628h-0.180632c-1.264421-0.541895-2.709473-0.903158-3.973893-1.625684-18.06315-6.863997-35.584406-11.199153-52.021873-13.366731l-4.335156-0.541895c-7.767155-0.903158-15.173046-1.445052-22.578938-1.445052-1.625684 0-3.251367 0.180632-4.877051 0.180632-5.96084 0.180632-11.921679 0.541895-17.521256 1.26442-1.445052 0.180632-2.890104 0.180632-4.335156 0.541895-1.264421 0.180632-2.34821 0.541895-3.431999 0.541894 5.238314-25.107779 8.850944-62.317869-7.586523-87.064385-17.701887-26.733463-21.856412-109.101429-0.361263-171.238666 9.212207-26.914094-1.986947-75.323337-9.934733-102.959958z m596.083966 287.926618c30.526724-79.116599 16.79873-117.59111 5.599577-148.298465l-1.625684-4.335156c-22.75957-64.304816-13.005468-115.2429-7.405892-135.292997h134.931734c-7.947786 27.63662-18.966308 76.045863-9.754101 102.959958 21.495149 62.317869 17.340624 144.685835-0.180631 171.238666-16.618098 24.927148-13.005468 61.956606-7.767155 87.064385-1.264421-0.180632-2.34821-0.541895-3.431999-0.541894-0.903158-0.180632-1.986947-0.180632-3.070735-0.361263-6.322103-0.903158-12.824837-1.264421-19.688834-1.445052-0.903158 0-1.806315-0.180632-2.709473-0.180632-25.288411-0.180632-54.00882 4.877051-84.174281 16.979362-7.947786-11.741048-19.508203-39.377668-0.722526-87.786912z m213.325807 85.980597c0 17.701887-14.089257 32.152408-31.610513 32.874933-2.167578-5.780208-5.238314-11.379785-9.754102-16.618098-0.541895-0.722526-1.264421-1.264421-2.167578-2.167578l-0.722526-0.722526c-2.167578-2.34821-4.877051-4.515788-7.405891-6.683366-0.903158-0.541895-1.806315-1.264421-2.709473-1.986946-2.167578-1.445052-4.515788-2.890104-7.044629-4.335156-0.903158-0.541895-1.986947-1.264421-2.890104-1.806315-0.361263-0.180632-0.722526-0.180632-1.083789-0.541895 0 0-0.180632 0-0.180631-0.180631-5.780208-19.327571-14.45052-61.23408-1.083789-81.103546 25.107779-38.113247 27.094726-130.596578 3.61263-197.972129-6.322103-18.243782 3.431999-62.859764 12.824837-93.025225h5.960839c8.309049 0 15.173046-6.683366 15.173047-15.173046 0-8.309049-6.683366-15.173046-15.173047-15.173047H741.311695c-8.309049 0-15.173046 6.683366-15.173046 15.173047 0 5.96084 3.431999 10.83789 8.309049 13.366731-6.863997 27.094726-14.089257 80.38102 9.57347 147.214676l1.625683 4.515788c9.754101 27.455989 21.133886 58.524608-5.418945 126.983948-21.495149 55.634503-10.115364 91.941436 1.264421 111.269006-10.115364 5.418945-20.230729 11.379785-30.526725 18.424414H362.166167c-0.903158-0.541895-1.986947-1.083789-2.890104-1.806315-8.309049-5.599577-16.618098-10.476627-24.746516-15.173046-0.903158-0.541895-1.986947-1.264421-3.070736-1.806316 11.379785-19.327571 22.75957-55.634503 1.264421-111.088375-26.552831-68.45934-15.353678-99.527959-5.599577-126.803316l1.806315-4.696419c23.662727-67.014288 16.437467-120.300582 9.57347-147.214677 4.877051-2.528841 8.309049-7.405892 8.309049-13.366731 0-8.309049-6.683366-15.173046-15.173046-15.173046H135.112365c-8.309049 0-15.173046 6.683366-15.173046 15.173046 0 8.309049 6.683366 15.173046 15.173046 15.173046h5.96084c9.212207 30.165461 18.966308 74.781443 12.824837 93.025225-22.75957 66.111131-21.133886 160.581408 3.61263 197.972129 13.1861 19.688834 4.696419 61.595343-1.083789 81.103546-0.361263 0.180632-0.903158 0.361263-1.26442 0.541895-1.264421 0.541895-2.167578 1.264421-3.251368 2.167578-2.34821 1.264421-4.335156 2.528841-6.502734 3.973893l-2.890104 2.167578c-2.528841 2.167578-5.057682 4.154525-7.22526 6.322102l-0.903158 0.903158-1.986946 1.986947c-1.806315 2.167578-3.251367 4.335156-4.877051 6.683365 0 0.180632-0.180632 0.180632-0.180631 0.180632-1.986947 3.251367-3.61263 6.502734-4.877051 9.934732H74.781443c-18.243782 0-32.874934-14.811783-32.874934-32.874933V98.44417c0-18.243782 14.811783-32.874934 32.874934-32.874934h874.256483c18.243782 0 32.874934 14.811783 32.874933 32.874934l0.180632 601.502911z m-502.155583-444.534133c0-8.309049-6.683366-15.173046-15.173046-15.173047-51.479979 0-95.012171-31.791145-115.965426-46.964191-4.877051-3.61263-8.670312-6.322103-11.199154-7.767155-7.22526-4.335156-16.437467-1.986947-20.772623 5.238314-4.335156 7.22526-1.986947 16.437467 5.238314 20.772623 2.167578 1.264421 5.057682 3.431999 8.850944 6.322103 23.662727 17.159993 72.433233 52.925031 133.667313 52.925031 8.670312-0.180632 15.353678-7.044629 15.353678-15.353678z m217.480332-69.904393c-2.528841 1.625684-6.322103 4.335156-11.379785 7.767155-20.953255 15.173046-64.485447 46.964191-115.965426 46.964191-8.309049 0-15.173046 6.683366-15.173047 15.173047 0 8.309049 6.683366 15.173046 15.173047 15.173046 61.23408 0 110.365849-35.765038 133.847945-52.744399 3.793262-2.890104 6.863997-5.057682 8.850943-6.322103 7.22526-4.335156 9.57347-13.547363 5.238314-20.772623-4.154525-7.22526-13.547363-9.754101-20.591991-5.238314z m-77.129653 412.020462l-102.0568-45.880402c-4.154525-1.806315-9.031575-1.625684-13.005468 0.180632l-90.315753 45.880402c-7.405892 3.793262-10.476627 12.824837-6.683365 20.41136 3.793262 7.405892 12.824837 10.295996 20.41136 6.683366l83.813018-42.448404 95.373434 42.809667c1.986947 0.903158 4.154525 1.264421 6.322103 1.26442 5.780208 0 11.379785-3.251367 13.908626-9.031575 3.251367-7.586523-0.180632-16.437467-7.767155-19.869466z m0 0" fill="#444444" p-id="2175"></path></svg>