<?xml version="1.0" standalone="no"?><!DOCTYPE svg PUBLIC "-//W3C//DTD SVG 1.1//EN" "http://www.w3.org/Graphics/SVG/1.1/DTD/svg11.dtd"><svg t="1509931214365" class="icon" style="" viewBox="0 0 1024 1024" version="1.1" xmlns="http://www.w3.org/2000/svg" p-id="1035" xmlns:xlink="http://www.w3.org/1999/xlink" width="64" height="64"><defs><style type="text/css"></style></defs><path d="M723.9 305.2a32.2 32.1 0 1 0 64.4 0 32.2 32.1 0 1 0-64.4 0Z" fill="#4D4D4D" p-id="1036"></path><path d="M940.1 426.7l-65.3-58.5c-0.7-0.7-1.5-1.4-2.2-2l-0.2-0.2c-5.5-4.4-12.6-7.1-20.2-7.1-17.8 0-32.2 14.4-32.2 32.1 0 10.6 5.2 20 13.2 25.9l33.9 30.4H801l-0.1 0.1c-17.7 0.1-32.1 14.4-32.1 32.1l-0.2 0.2v36.2h0.5v283.8c0 35.2-28.8 64-64 64h-64.9V580c0-35.2-28.8-64-64-64h-129c-35.2 0-64 28.8-64 64v283.7h-63.1c-35.2 0-64-28.8-64-64V507.4h-0.1v-27.8l-0.1-0.1v-0.1c0-17.7-14.4-32.1-32.2-32.1h-0.1l-0.1-0.1h-66.9L511.3 129l129.6 116 0.1-0.1c5.4 4 12.1 6.4 19.3 6.4 17.8 0 32.2-14.4 32.2-32.1 0-10-4.6-18.9-11.8-24.8L557 83.6c-11.6-11.9-27.8-19.3-45.7-19.3-18.9 0-35.9 8.2-47.5 21.3h-0.2L84.7 425.8c-3 2.2-5.8 4.6-8.3 7.4-7.4 8.4-11.9 19.4-11.9 31.5 0 26.4 21.5 47.8 48 47.8H192.1v288.1c0 69.8 57.1 127 127 127h127.8V610.8c0-17.6 14.4-32 32-32h65.5c17.6 0 32 14.4 32 32v316.8h63.8v-0.1h63.5c70.4 0 128-57.6 128-128V512.6h79.4c26.5 0 48-21.4 48-47.8 0-15.6-7.5-29.4-19-38.1z" fill="#4D4D4D" p-id="1037"></path></svg>