<?xml version="1.0" standalone="no"?><!DOCTYPE svg PUBLIC "-//W3C//DTD SVG 1.1//EN" "http://www.w3.org/Graphics/SVG/1.1/DTD/svg11.dtd"><svg t="1509979122459" class="icon" style="" viewBox="0 0 1024 1024" version="1.1" xmlns="http://www.w3.org/2000/svg" p-id="10464" xmlns:xlink="http://www.w3.org/1999/xlink" width="64" height="64"><defs><style type="text/css"></style></defs><path d="M512.932 565.845c-10.838 0-21.586-4.823-28.776-14.041-12.368-15.892-9.521-38.777 6.353-51.163l318.902-248.448c15.856-12.368 38.759-9.521 51.163 6.353 12.368 15.892 9.521 38.777-6.353 51.163L535.32 558.157a36.36 36.36 0 0 1-22.388 7.688zM512.932 779.502c-10.838 0-21.586-4.823-28.776-14.041-12.368-15.892-9.521-38.777 6.353-51.163L809.411 465.85c15.856-12.35 38.759-9.539 51.163 6.353 12.368 15.892 9.521 38.777-6.353 51.163L535.32 771.814a36.354 36.354 0 0 1-22.388 7.688z" p-id="10465" fill="#707070"></path><path d="M511.068 565.845a36.351 36.351 0 0 1-22.387-7.688L169.778 309.708c-15.874-12.386-18.721-35.271-6.353-51.163 12.386-15.856 35.307-18.703 51.163-6.353L533.49 500.64c15.874 12.386 18.721 35.271 6.353 51.163-7.189 9.219-17.938 14.042-28.775 14.042zM511.068 779.502a36.351 36.351 0 0 1-22.387-7.688L169.778 523.366c-15.874-12.386-18.721-35.271-6.353-51.163 12.386-15.874 35.307-18.686 51.163-6.353L533.49 714.298c15.874 12.386 18.721 35.271 6.353 51.163-7.189 9.218-17.938 14.041-28.775 14.041z" p-id="10466" fill="#707070"></path></svg>