<?xml version="1.0" standalone="no"?><!DOCTYPE svg PUBLIC "-//W3C//DTD SVG 1.1//EN" "http://www.w3.org/Graphics/SVG/1.1/DTD/svg11.dtd"><svg t="1510582961498" class="icon" style="" viewBox="0 0 1024 1024" version="1.1" xmlns="http://www.w3.org/2000/svg" p-id="19576" xmlns:xlink="http://www.w3.org/1999/xlink" width="64" height="64"><defs><style type="text/css"></style></defs><path d="M805.459 512.652 543.62 774.497l0.083 0.083-16.161 16.161c-12.46 12.46-32.66 12.46-45.114 0-12.46-12.454-12.46-32.653 0-45.114l233.059-233.059L481.286 278.368c-12.454-12.454-12.454-32.653 0-45.114 12.46-12.454 32.66-12.454 45.114 0l26.095 26.095-0.179 0.16L805.459 512.652zM550.255 512.652 288.416 774.497l0.083 0.083-16.161 16.161c-12.46 12.46-32.66 12.46-45.114 0-12.46-12.454-12.46-32.653 0-45.114l233.059-233.059L226.082 278.368c-12.454-12.454-12.454-32.653 0-45.114 12.46-12.454 32.66-12.454 45.114 0l26.095 26.095-0.179 0.16L550.255 512.652z" p-id="19577" fill="#515151"></path></svg>