<?xml version="1.0" standalone="no"?><!DOCTYPE svg PUBLIC "-//W3C//DTD SVG 1.1//EN" "http://www.w3.org/Graphics/SVG/1.1/DTD/svg11.dtd"><svg t="1510485725149" class="icon" style="" viewBox="0 0 1536 1024" version="1.1" xmlns="http://www.w3.org/2000/svg" p-id="19663" xmlns:xlink="http://www.w3.org/1999/xlink" width="96" height="64"><defs><style type="text/css"></style></defs><path d="M736 448C753.92 448 768 433.92 768 416 768 398.08 753.92 384 736 384l-128 0C590.08 384 576 398.08 576 416l0 256C576 689.92 590.08 704 608 704l128 0c17.92 0 32-14.08 32-32 0-17.92-14.08-32-32-32L640 640 640 576l96 0C753.92 576 768 561.92 768 544 768 526.08 753.92 512 736 512L640 512 640 448 736 448zM480 385.92C462.08 385.92 448 400 448 417.28l0 158.72L313.6 398.72C305.28 387.2 291.2 382.72 277.76 387.2 264.96 391.68 256 403.84 256 417.28l0 254.72C256 689.28 270.08 704 288 704 305.92 704 320 689.28 320 672L320 512.64l134.4 177.92C460.8 698.88 470.4 704 480 704c3.2 0 7.04-0.64 10.24-1.92C503.04 697.6 512 685.44 512 672L512 417.28C512 400 497.92 385.92 480 385.92zM1344 192 192 192C121.6 192 64 249.6 64 320l0 448c0 70.4 57.6 128 128 128l1152 0c70.4 0 128-57.6 128-128L1472 320C1472 249.6 1414.4 192 1344 192zM1408 768c0 35.2-28.8 64-64 64L192 832c-35.2 0-64-28.8-64-64L128 320c0-35.2 28.8-64 64-64l1152 0c35.2 0 64 28.8 64 64L1408 768zM1251.2 384c-16-5.76-34.56 1.92-40.32 18.56l-65.28 172.8-65.28-172.8c-8.96-24.32-49.92-24.32-58.88 0l-65.28 172.8-65.28-172.8C885.12 385.92 867.2 377.6 850.56 384c-16.64 6.4-24.32 24.32-18.56 40.32l94.72 250.88c8.96 24.32 49.92 24.32 58.88 0l65.28-172.8 65.28 172.8c4.48 12.16 16.64 20.48 29.44 20.48 13.44 0 24.96-8.32 29.44-20.48l94.72-250.88C1276.16 407.68 1267.84 389.76 1251.2 384z" p-id="19664" fill="#d81e06"></path></svg>