<?xml version="1.0" standalone="no"?><!DOCTYPE svg PUBLIC "-//W3C//DTD SVG 1.1//EN" "http://www.w3.org/Graphics/SVG/1.1/DTD/svg11.dtd"><svg t="1510485305554" class="icon" style="" viewBox="0 0 1024 1024" version="1.1" xmlns="http://www.w3.org/2000/svg" p-id="16993" xmlns:xlink="http://www.w3.org/1999/xlink" width="64" height="64"><defs><style type="text/css"></style></defs><path d="M 869.28 153.174 h -714.561 c -65.768 0 -119.093 53.382 -119.093 119.093 v 416.826 c 0 65.826 53.324 119.065 119.093 119.065 h 119.093 v 119.092 l 178.642 -119.092 h 416.826 c 65.768 0 119.092 -53.238 119.092 -119.065 l -0.004 -416.826 c 0 -65.71 -53.321 -119.093 -119.088 -119.093 Z M 333.359 629.547 h -59.548 v -59.546 h -59.547 v -59.548 h -59.548 v 119.093 h -59.548 v -297.734 h 59.548 v 59.546 h 59.548 v 59.548 h 59.546 v -119.093 h 59.548 v 297.734 Z M 571.546 391.359 h -119.092 v 59.548 h 119.092 v 59.546 h -119.092 v 59.548 h 119.092 v 59.546 h -178.641 v -297.734 h 178.641 v 59.547 Z M 928.825 570.001 h -59.546 v 59.546 h -59.549 v -119.093 h -59.546 v 119.093 h -59.546 v -59.546 h -59.546 v -238.188 h 59.546 v 178.641 h 59.546 v -178.641 h 59.546 v 178.641 h 59.549 v -178.641 h 59.546 v 238.188 Z" fill="#d81e06" p-id="16994"></path></svg>