<?xml version="1.0" standalone="no"?><!DOCTYPE svg PUBLIC "-//W3C//DTD SVG 1.1//EN" "http://www.w3.org/Graphics/SVG/1.1/DTD/svg11.dtd"><svg t="1509931827269" class="icon" style="" viewBox="0 0 1024 1024" version="1.1" xmlns="http://www.w3.org/2000/svg" p-id="17858" xmlns:xlink="http://www.w3.org/1999/xlink" width="64" height="64"><defs><style type="text/css"></style></defs><path d="M637.050592 1024c-5.104106 0-10.208212 0-15.312317-2.552053-84.217746-12.760265-219.47655-66.353376-382.807936-242.445026-142.914963-158.22728-222.028603-311.350455-204.164233-410.880518 12.760265-99.530063 155.675227-160.779333 160.779334-163.331386 12.760265-5.104106 28.072582 0 33.176687 10.208211l119.946487 201.61218c5.104106 7.656159 5.104106 15.312317 2.552053 22.968476-2.552053 7.656159-7.656159 12.760265-15.312318 15.312318 0 0-15.312317 7.656159-17.86437 25.520529-5.104106 20.416423 0 66.353376 71.457481 150.571121 45.936952 56.145164 94.425958 86.769799 135.258805 86.769799 38.280794 2.552053 61.24927-22.968476 63.801322-22.968476 10.208212-10.208212 25.520529-10.208212 35.728741-2.552053l188.851915 142.914963c10.208212 7.656159 12.760265 22.968476 7.656159 33.176688-5.104106 7.656159-79.11364 155.675227-183.74781 155.675227zM195.54544 263.488234c-40.832847 22.968476-102.082116 66.353376-109.738276 114.84238-10.208212 63.801323 35.728741 193.956021 191.403969 364.943566 153.123174 165.883439 275.621714 214.372444 349.631248 227.132709 53.593111 7.656159 107.186222-61.24927 132.706751-104.634169l-153.123174-114.842381c-17.86437 12.760265-45.936952 25.520529-84.217746 25.520529-58.697217-2.552053-117.394434-38.280794-176.091651-107.186222-66.353376-79.11364-94.425958-145.467016-81.665693-199.060127 5.104106-20.416423 15.312317-35.728741 25.520529-43.384899l-94.425957-163.331386zM966.265417 587.598953c-12.760265 0-25.520529-10.208212-25.520529-22.968476-2.552053-15.312317-5.104106-33.176688-7.656158-48.489006-2.552053-15.312317 7.656159-28.072582 20.416423-30.624634 15.312317-2.552053 28.072582 7.656159 30.624635 20.416423 2.552053 17.86437 7.656159 35.728741 7.656159 53.593111 2.552053 15.312317-7.656159 28.072582-22.968477 30.624635 0-2.552053 0-2.552053-2.552053-2.552053z m-40.832846-160.779333c-10.208212 0-20.416423-7.656159-25.520529-17.864371-5.104106-10.208212-7.656159-20.416423-12.760265-30.624635-20.416423-45.936952-48.489005-89.321852-81.665693-130.154698-74.009534-89.321852-168.435492-158.22728-278.173767-196.508074-15.312317-5.104106-20.416423-20.416423-17.86437-33.176687 5.104106-15.312317 20.416423-20.416423 33.176688-17.864371 119.946487 40.832847 224.580656 114.842381 303.694296 211.820391 35.728741 43.384899 63.801323 89.321852 86.769799 140.36291 5.104106 10.208212 10.208212 20.416423 12.760264 33.176688 5.104106 12.760265-2.552053 30.624635-15.312317 35.728741 2.552053 5.104106-2.552053 5.104106-5.104106 5.104106zM802.934031 585.0469c-12.760265 0-22.968476-10.208212-25.520529-22.968476-12.760265-76.561587-45.936952-148.019069-94.425957-209.268339-48.489005-61.24927-112.290328-107.186222-183.74781-135.258804-12.760265-5.104106-20.416423-20.416423-15.312317-35.72874 5.104106-12.760265 20.416423-20.416423 35.728741-15.312318 79.11364 33.176688 150.571122 84.217746 206.716285 153.123175 53.593111 68.905428 91.873905 148.019069 107.186222 234.788867 2.552053 15.312317-7.656159 28.072582-22.968476 30.624635-5.104106-2.552053-5.104106 0-7.656159 0zM634.49854 574.838688c-12.760265 0-22.968476-7.656159-25.52053-20.416423-10.208212-35.728741-28.072582-71.457481-53.593111-102.082116-25.520529-30.624635-56.145164-56.145164-89.321851-74.009535-12.760265-7.656159-17.86437-22.968476-10.208212-35.72874 7.656159-12.760265 22.968476-17.86437 35.728741-10.208212 40.832847 22.968476 76.561587 51.041058 107.186222 89.321852 28.072582 35.728741 51.041058 76.561587 63.801323 119.946487 5.104106 15.312317-5.104106 28.072582-17.864371 33.176687h-10.208211z" p-id="17859"></path></svg>