<?xml version="1.0" standalone="no"?><!DOCTYPE svg PUBLIC "-//W3C//DTD SVG 1.1//EN" "http://www.w3.org/Graphics/SVG/1.1/DTD/svg11.dtd"><svg t="1524184471948" class="icon" style="" viewBox="0 0 1049 1024" version="1.1" xmlns="http://www.w3.org/2000/svg" p-id="3860" xmlns:xlink="http://www.w3.org/1999/xlink" width="65.5625" height="64"><defs><style type="text/css"></style></defs><path d="M1033.152512 465.6896C899.264512 270.3104 747.149312 169.6256 581.082112 166.4512c-2.3552-0.0512-4.6848-0.0512-7.0144-0.0512-138.3168 0-244.6336 78.1824-338.7904 172.5184-0.3328 0.1024-0.6656 0.0256-0.9984 0.1536-21.3248 7.552-62.592 15.488-82.5856 4.608-5.9136-3.2256-9.3696-7.9872-11.136-15.4368a25.6512 25.6512 0 0 0-49.8176 11.9552c5.1712 21.5808 17.8432 38.3744 36.608 48.5376 15.1296 8.192 32.7424 11.1104 49.8688 11.3408l-4.5312 4.9408c-57.4208 63.0272-94.5664 29.7472-108.5696 17.3056A38.4 38.4 0 0 0 12.941312 479.5648c66.56 59.4944 149.5552 50.7136 216.5248-22.8608 102.4768-112.5376 205.9776-213.504 344.6784-213.504 1.8176 0 3.6352 0 5.4528 0.0512 139.8528 2.6624 271.1296 92.1088 389.6576 265.0624 5.5808 8.576 3.9424 12.2624 0.1536 17.9968-101.9648 164.0192-236.7232 252.032-388.4544 254.464-128.6656-2.0736-258.304-62.7712-346.7264-162.3808a38.4 38.4 0 0 0-57.4208 50.9952c102.4512 115.4048 253.0816 185.7536 404.1472 188.1856 125.7728-2.0224 306.5856-54.0928 453.0176-289.6896 21.12-31.6416 21.0176-68.5824-0.8192-102.1952z" fill="#ffffff" p-id="3861"></path><path d="M766.938112 512.0256c0-101.0176-83.0976-183.2192-185.2416-183.2192-102.144 0-185.2416 82.2016-185.2416 183.2192s83.0976 183.2192 185.2416 183.2192c102.144 0 185.2416-82.2016 185.2416-183.2192z m-319.3088 0c0-72.8064 60.1344-132.0192 134.0416-132.0192s134.0416 59.2128 134.0416 132.0192-60.1344 132.0192-134.0416 132.0192-134.0416-59.2128-134.0416-132.0192z" fill="#ffffff" p-id="3862"></path></svg>