<?xml version="1.0" standalone="no"?><!DOCTYPE svg PUBLIC "-//W3C//DTD SVG 1.1//EN" "http://www.w3.org/Graphics/SVG/1.1/DTD/svg11.dtd"><svg t="1509931252778" class="icon" style="" viewBox="0 0 1024 1024" version="1.1" xmlns="http://www.w3.org/2000/svg" p-id="1165" xmlns:xlink="http://www.w3.org/1999/xlink" width="64" height="64"><defs><style type="text/css"></style></defs><path d="M627.9 588.4l-167.8-97.8c-4.3-5-10.7-8.1-17.7-8.1-13.1 0-23.6 10.7-23.6 23.8v1.3l-0.3 0.2 0.4 199.8c-0.1 0.8-0.1 1.6-0.1 2.5 0 13.2 10.6 23.8 23.6 23.8 4.4 0 8.5-1.2 12.1-3.3l171.7-100c8-3.7 13.6-11.9 13.6-21.5 0-8.8-4.8-16.6-11.9-20.7z" fill="#4D4D4D" p-id="1166"></path><path d="M574.5 927.6a32.2 32.1 0 1 0 64.4 0 32.2 32.1 0 1 0-64.4 0Z" fill="#4D4D4D" p-id="1167"></path><path d="M831.8 64H192.1c-70.4 0-128 57.6-128 128v639.7c0 70.4 57.6 128 128 128h285.7c17.8 0 32.1-14.4 32.1-32.1 0-17.7-14.4-32.1-32.2-32.1h-0.6l-285.1 0.2c-35.2 0-64-29.6-64-64.8V319.7c0.6 0 1.3 0.1 1.9 0.1H896.2v511.1c0 35.2-28.8 64.8-64 64.8h-92.4c-1.2-0.1-2.4-0.2-3.6-0.2-17.8 0-32.2 14.4-32.2 32.1 0 17.7 14.4 32.1 32.2 32.1h95.7c70.4 0 128-57.6 128-128V192c-0.1-70.4-57.7-128-128.1-128zM655.9 256l-74-128.3h90.9l74 128.3h-90.9z m-167.5 0l-74-128.3h90.8l74 128.3h-90.8z m-172.8 0l-74.1-128.3h96.1l74 128.3h-96z m-187.6 0.1v-64.4c0-26.6 16.4-49.5 39.6-59.1L238.8 256H129.9c-0.6 0-1.3 0-1.9 0.1z m768.1-0.1h-72.5l-74-128.3h82.6c35.2 0 64 28.8 64 64V256h-0.1z" fill="#4D4D4D" p-id="1168"></path></svg>