<?xml version="1.0" standalone="no"?><!DOCTYPE svg PUBLIC "-//W3C//DTD SVG 1.1//EN" "http://www.w3.org/Graphics/SVG/1.1/DTD/svg11.dtd"><svg t="1510582836226" class="icon" style="" viewBox="0 0 1024 1024" version="1.1" xmlns="http://www.w3.org/2000/svg" p-id="10172" xmlns:xlink="http://www.w3.org/1999/xlink" width="64" height="64"><defs><style type="text/css"></style></defs><path d="M196.625728 505.569544l330.003969-363.942943c0 0 29.761837-46.388517 0.061398-74.255191-41.715077-39.136346-87.151919 0.448208-87.151919 0.448208L59.799456 465.915405l-0.710175 79.4454 382.940622 398.444734c0 0 45.962821 43.682895 87.174432-0.549515 26.567076-28.511357 0.704035-75.877131 0.704035-75.877131L196.625728 505.569544z" fill="#515151" p-id="10173"></path><path d="M956.592262 867.378893L623.310643 505.569544l330.003969-363.942943c0 0 29.760814-46.388517 0.060375-74.255191-41.714054-39.136346-87.151919 0.448208-87.151919 0.448208l-379.738697 398.09681-0.710175 79.4454 382.939599 398.444734c0 0 45.963845 43.682895 87.175455-0.549515C982.455303 914.744667 956.592262 867.378893 956.592262 867.378893z" fill="#515151" p-id="10174"></path></svg>